<svg height="882.23627" viewBox="0 0 233.42503 233.42501" width="882.23627" xmlns="http://www.w3.org/2000/svg"><g transform="translate(-10.41325 -34.376457)"><path d="m163.93773 176.95478c-.64534-.14235-.73338-.6788-.42133-2.56755l.16816-1.01783 1.35959.16987c1.15619.14446 1.49674.0775 2.27632-.44725 1.74426-1.1742 1.70257-.81898 1.78611-15.21696l.0756-13.03209-.60478-.23838c-.33263-.13111-1.20009-.33886-1.9277-.46167l-1.32292-.22328-.0793-1.52135-.0794-1.52136h4.2547 4.25469l-.0743 15.41198-.0743 15.41198-.62873 1.39099c-.69062 1.52794-1.99459 2.8264-3.44839 3.43384-.95455.39884-4.42634.66899-5.51403.42906zm-90.566723-10.22744c-2.551166-.72411-4.299009-2.32387-5.310415-4.86049-.58252-1.46096-.620147-1.9344-.707377-8.90074-.06708-5.35685-.176956-7.38125-.404067-7.44427-.171563-.0476-.817951-.224-1.436415-.39198l-1.124479-.30542v-2.10604-2.10605h4.894792 4.894792v8.85819c0 9.83428.08909 10.44719 1.683739 11.58387 1.585537 1.13019 4.68144.67917 6.452198-.93996.588534-.53814.595312-.62373.595312-7.51798 0-5.34337-.07732-6.99958-.330729-7.08457-.181901-.061-.836745-.24045-1.455208-.39877l-1.124479-.28784v-2.10647-2.10647l4.960937-.0001 4.960938-.00009-.07227 10.36564c-.04075 5.84548.03085 10.46876.1642 10.60211.130056.13006.81742.38434 1.527474.56508l1.291008.32862.07685 2.16625.07684 2.16624h-4.480308c-4.870551 0-4.797102.0236-4.805119-1.54299-.0021-.38828-.0761-.97651-.164695-1.30718-.154438-.57642-.214638-.55111-1.460265.61403-.714552.66838-1.84091 1.45486-2.503016 1.74774-1.51192.6688-4.574347.87113-6.200243.40964zm33.747453.0951c-1.15871-.28334-2.82392-1.19501-3.4931-1.91241-1.4392-1.54291-1.52402-2.10633-1.66627-11.06849l-.13229-8.33438-1.78594-.0782-1.78594-.0782v-2.35707-2.35707l1.78594-.0782 1.78594-.0782.0743-3.24899.0743-3.24899 3.36523.074 3.36523.074.0743 3.24114.0743 3.24115h2.37311 2.3731v2.38125 2.38125h-2.38125-2.38125v7.29344c0 4.71853.10093 7.48202.28588 7.8276.43072.8048 1.87068 1.3038 3.2262 1.11801l1.16187-.15925.32407 2.31656c.17824 1.2741.22793 2.40901.11042 2.52202-.62421.60032-5.11429.9483-6.82823.52919zm22.12137-.0379c-.63908-.12551-1.91062-.57854-2.82564-1.00673-4.37972-2.04952-6.55598-6.09959-6.55598-12.20085 0-4.7642 1.12389-7.70899 3.91612-10.26094 2.52422-2.30699 5.05706-3.11439 9.10605-2.90276 1.68681.0882 3.04053.32263 4.00371.69344 3.115 1.19925 5.54898 3.83067 6.63998 7.1786.71169 2.18394.94281 6.12833.50957 8.69681-1.19123 7.06246-7.4909 11.23664-14.79381 9.80243zm5.465-5.70842c2.00812-1.48755 2.81868-3.97703 2.65839-8.16468-.0978-2.55525-.21253-3.16144-.84169-4.4474-1.00622-2.05664-1.9409-2.66548-4.26649-2.77914-1.59935-.0782-1.97925-.005-2.77299.5336-1.09613.74388-2.01778 2.04269-2.38331 3.35859-.41808 1.50515-.33611 7.18222.12249 8.48201.93204 2.64169 2.60195 3.80465 5.23464 3.64554 1.00284-.0606 1.77279-.27579 2.24896-.62852zm-124.291575 3.65308v-2.07693l1.785938-.37047 1.785937-.37046.06875-12.35857c.07827-14.06823.34634-12.53939-2.338501-13.3367l-1.302129-.38669v-2.10642-2.10641l8.929688.002c4.911328.001 9.682598.12417 10.602822.2735 6.740789 1.09383 10.640782 6.06944 9.837065 12.55013-.566745 4.5699-3.92267 7.95029-8.950709 9.01595-1.072846.22738-3.349076.37603-5.800637.37883l-4.034896.005v4.07713 4.07714l1.852084.31239 1.852083.3124v2.09276 2.09276h-7.14375-7.14375zm19.253325-16.58885c3.41713-1.42777 4.482943-5.89153 2.169321-9.08539-1.19655-1.65179-2.874511-2.14678-7.277363-2.14678h-3.56195v5.82084 5.82083h3.844957c2.871889 0 4.092991-.10364 4.825035-.4095zm15.936258 16.60202v-2.06373l1.5875-.32789 1.5875-.3279v-13.75626c0-10.77083-.07178-13.77978-.330729-13.86463-.181901-.0596-1.015339-.2429-1.852084-.40733l-1.521354-.29896v-2.2302-2.2302l5.357813-.00005 5.357812-.00004-.07013 16.26048c-.0792 18.36478-.301828 16.58551 2.120649 16.94874l1.256771.18845v2.08662 2.08663h-6.746875-6.746875zm107.420832-.31752v-2.38125h2.24896 2.24896v2.38125 2.38125h-2.24896-2.24896zm29.10417.95827v-1.42299l1.91822-.36886 1.91823-.36886.0683-14.97655.0683-14.97656-1.9204-.36834-1.9204-.36834-.0788-1.64868-.0788-1.64867h4.3763 4.37631l.0681 16.99356.0681 16.99357 1.91823.36886 1.91823.36887v1.42299 1.42298h-6.35-6.35zm-13.22917-33.89889v-2.51355h2.38125 2.38125v2.51355 2.51354h-2.38125-2.38125z" stroke-width=".264583"/><g stroke-width="2.24784974353"><circle cx="230.35116932001" cy="166.25827056899" fill="#d66661" r="12.36317358941" stroke="#c93d39"/><circle cx="230.35116932001" cy="151.08896378092" fill="#aa7dc0" r="12.36317358941" stroke="#945bb0"/><circle cx="230.35116932001" cy="135.91965849142" fill="#6bab5b" r="12.36317358941" stroke="#3b972e"/></g></g></svg>